<svg xmlns="http://www.w3.org/2000/svg" xmlns:xlink="http://www.w3.org/1999/xlink" width="1917" zoomAndPan="magnify" viewBox="0 0 1437.75 811.499971" height="1082" preserveAspectRatio="xMidYMid meet" version="1.0"><defs><clipPath id="99e840990e"><path d="M 0.316406 0 L 1437.183594 0 L 1437.183594 811 L 0.316406 811 Z M 0.316406 0 " clip-rule="nonzero"/></clipPath><clipPath id="c37c49eb4a"><path d="M 385 138.707031 L 1053 138.707031 L 1053 672.378906 L 385 672.378906 Z M 385 138.707031 " clip-rule="nonzero"/></clipPath><clipPath id="ad2d3bac6e"><path d="M 384.496094 223 L 559 223 L 559 361 L 384.496094 361 Z M 384.496094 223 " clip-rule="nonzero"/></clipPath><clipPath id="2dff6b4e32"><path d="M 880 223 L 1053.085938 223 L 1053.085938 361 L 880 361 Z M 880 223 " clip-rule="nonzero"/></clipPath><clipPath id="030807c961"><path d="M 561 463 L 877 463 L 877 672.378906 L 561 672.378906 Z M 561 463 " clip-rule="nonzero"/></clipPath><clipPath id="3ba8ecc294"><path d="M 551 138.707031 L 887 138.707031 L 887 378 L 551 378 Z M 551 138.707031 " clip-rule="nonzero"/></clipPath><clipPath id="3fcb711412"><path d="M 384.496094 260 L 509 260 L 509 515 L 384.496094 515 Z M 384.496094 260 " clip-rule="nonzero"/></clipPath><clipPath id="81acb891c6"><path d="M 930 256 L 1053.085938 256 L 1053.085938 511 L 930 511 Z M 930 256 " clip-rule="nonzero"/></clipPath></defs><g clip-path="url(#99e840990e)"><path fill="#ffffff" d="M 0.316406 0 L 1437.183594 0 L 1437.183594 811 L 0.316406 811 Z M 0.316406 0 " fill-opacity="1" fill-rule="nonzero"/><path fill="#ffffff" d="M 0.316406 0 L 1437.183594 0 L 1437.183594 811 L 0.316406 811 Z M 0.316406 0 " fill-opacity="1" fill-rule="nonzero"/></g><g clip-path="url(#c37c49eb4a)"><path fill="#000000" d="M 975.554688 463.726562 L 975.152344 459.027344 L 963.699219 413.214844 L 947.578125 347.730469 L 945.71875 347.015625 L 936.757812 349.878906 L 903.257812 365.054688 L 897.53125 367.628906 L 840.835938 392.941406 L 820.222656 402.335938 L 815.210938 404.394531 L 790.875 416.078125 L 765.105469 416.277344 L 717.859375 417.222656 L 647.625 415.847656 L 608.914062 398.441406 L 596.890625 392.941406 L 567.398438 379.769531 L 540.195312 367.773438 L 533.753906 364.910156 L 499.910156 349.277344 L 492.324219 347.015625 L 490.546875 347.015625 L 488.371094 354.515625 L 481.15625 383.148438 L 462.316406 459.027344 L 462.144531 469.050781 L 464.292969 472.085938 L 478.609375 485.398438 L 485.765625 491.898438 L 495.070312 500.488281 L 518.664062 521.964844 L 530.117188 532.703125 L 545.636719 547.019531 L 548.242188 548.679688 L 550.875 550.3125 L 555.800781 549.597656 L 567.253906 544.042969 L 600.898438 525.429688 L 638.835938 504.957031 L 665.320312 489.78125 L 772.121094 489.78125 L 787.152344 498.515625 L 823.65625 518.558594 L 832.964844 523.597656 L 874.480469 546.21875 L 881.640625 549.480469 L 886.648438 550.371094 L 893.808594 545.617188 L 907.40625 532.617188 L 926.734375 515.007812 L 944.628906 498.3125 L 953.964844 489.722656 L 967.851562 477.667969 L 975.925781 468.304688 Z M 966.964844 475.695312 L 951.042969 489.808594 L 943.140625 496.96875 L 930.257812 509.167969 L 908.984375 528.40625 L 893.949219 542.980469 L 886.878906 548.164062 L 883.214844 548.164062 L 874.625 544.097656 L 788.726562 497.167969 L 772.691406 488.0625 L 666.265625 488.0625 L 662.65625 489.4375 L 644.132812 500.089844 L 610.347656 518.269531 L 564.820312 543.269531 L 559.523438 545.703125 L 554.226562 548.164062 L 550.789062 548.164062 L 545.0625 543.984375 L 528.828125 528.578125 L 489.402344 492.671875 L 468.042969 472.832031 L 464.089844 468.679688 L 464.089844 461.003906 L 477.03125 408.203125 L 491.347656 350.222656 L 492.523438 348.992188 L 500.167969 351.511719 L 540.914062 370.066406 L 586.722656 390.539062 L 607.769531 399.988281 L 646.136719 417.480469 L 704.832031 418.742188 L 738.476562 418.542969 L 792.164062 417.511719 L 816.5 405.828125 L 829.382812 400.101562 L 896.671875 370.007812 L 937.617188 351.539062 L 945.230469 348.992188 L 946.433594 350.222656 L 962.898438 416.792969 L 968.308594 438.871094 L 973.75 460.945312 L 973.75 467.875 Z M 975.554688 463.726562 L 975.152344 459.027344 L 963.699219 413.214844 L 947.578125 347.730469 L 945.71875 347.015625 L 936.757812 349.878906 L 903.257812 365.054688 L 897.53125 367.628906 L 840.835938 392.941406 L 820.222656 402.335938 L 815.210938 404.394531 L 790.875 416.078125 L 765.105469 416.277344 L 717.859375 417.222656 L 647.625 415.847656 L 608.914062 398.441406 L 596.890625 392.941406 L 567.398438 379.769531 L 540.195312 367.773438 L 533.753906 364.910156 L 499.910156 349.277344 L 492.324219 347.015625 L 490.546875 347.015625 L 488.371094 354.515625 L 481.15625 383.148438 L 462.316406 459.027344 L 462.144531 469.050781 L 464.292969 472.085938 L 478.609375 485.398438 L 485.765625 491.898438 L 495.070312 500.488281 L 518.664062 521.964844 L 530.117188 532.703125 L 545.636719 547.019531 L 548.242188 548.679688 L 550.875 550.3125 L 555.800781 549.597656 L 567.253906 544.042969 L 600.898438 525.429688 L 638.835938 504.957031 L 665.320312 489.78125 L 772.121094 489.78125 L 787.152344 498.515625 L 823.65625 518.558594 L 832.964844 523.597656 L 874.480469 546.21875 L 881.640625 549.480469 L 886.648438 550.371094 L 893.808594 545.617188 L 907.40625 532.617188 L 926.734375 515.007812 L 944.628906 498.3125 L 953.964844 489.722656 L 967.851562 477.667969 L 975.925781 468.304688 Z M 966.964844 475.695312 L 951.042969 489.808594 L 943.140625 496.96875 L 930.257812 509.167969 L 908.984375 528.40625 L 893.949219 542.980469 L 886.878906 548.164062 L 883.214844 548.164062 L 874.625 544.097656 L 788.726562 497.167969 L 772.691406 488.0625 L 666.265625 488.0625 L 662.65625 489.4375 L 644.132812 500.089844 L 610.347656 518.269531 L 564.820312 543.269531 L 559.523438 545.703125 L 554.226562 548.164062 L 550.789062 548.164062 L 545.0625 543.984375 L 528.828125 528.578125 L 489.402344 492.671875 L 468.042969 472.832031 L 464.089844 468.679688 L 464.089844 461.003906 L 477.03125 408.203125 L 491.347656 350.222656 L 492.523438 348.992188 L 500.167969 351.511719 L 540.914062 370.066406 L 586.722656 390.539062 L 607.769531 399.988281 L 646.136719 417.480469 L 704.832031 418.742188 L 738.476562 418.542969 L 792.164062 417.511719 L 816.5 405.828125 L 829.382812 400.101562 L 896.671875 370.007812 L 937.617188 351.539062 L 945.230469 348.992188 L 946.433594 350.222656 L 962.898438 416.792969 L 968.308594 438.871094 L 973.75 460.945312 L 973.75 467.875 Z M 975.554688 463.726562 L 975.152344 459.027344 L 963.699219 413.214844 L 947.578125 347.730469 L 945.71875 347.015625 L 936.757812 349.878906 L 903.257812 365.054688 L 897.53125 367.628906 L 840.835938 392.941406 L 820.222656 402.335938 L 815.210938 404.394531 L 790.875 416.078125 L 765.105469 416.277344 L 717.859375 417.222656 L 647.625 415.847656 L 608.914062 398.441406 L 596.890625 392.941406 L 567.398438 379.769531 L 540.195312 367.773438 L 533.753906 364.910156 L 499.910156 349.277344 L 492.324219 347.015625 L 490.546875 347.015625 L 488.371094 354.515625 L 481.15625 383.148438 L 462.316406 459.027344 L 462.144531 469.050781 L 464.292969 472.085938 L 478.609375 485.398438 L 485.765625 491.898438 L 495.070312 500.488281 L 518.664062 521.964844 L 530.117188 532.703125 L 545.636719 547.019531 L 548.242188 548.679688 L 550.875 550.3125 L 555.800781 549.597656 L 567.253906 544.042969 L 600.898438 525.429688 L 638.835938 504.957031 L 665.320312 489.78125 L 772.121094 489.78125 L 787.152344 498.515625 L 823.65625 518.558594 L 832.964844 523.597656 L 874.480469 546.21875 L 881.640625 549.480469 L 886.648438 550.371094 L 893.808594 545.617188 L 907.40625 532.617188 L 926.734375 515.007812 L 944.628906 498.3125 L 953.964844 489.722656 L 967.851562 477.667969 L 975.925781 468.304688 Z M 966.964844 475.695312 L 951.042969 489.808594 L 943.140625 496.96875 L 930.257812 509.167969 L 908.984375 528.40625 L 893.949219 542.980469 L 886.878906 548.164062 L 883.214844 548.164062 L 874.625 544.097656 L 788.726562 497.167969 L 772.691406 488.0625 L 666.265625 488.0625 L 662.65625 489.4375 L 644.132812 500.089844 L 610.347656 518.269531 L 564.820312 543.269531 L 559.523438 545.703125 L 554.226562 548.164062 L 550.789062 548.164062 L 545.0625 543.984375 L 528.828125 528.578125 L 489.402344 492.671875 L 468.042969 472.832031 L 464.089844 468.679688 L 464.089844 461.003906 L 477.03125 408.203125 L 491.347656 350.222656 L 492.523438 348.992188 L 500.167969 351.511719 L 540.914062 370.066406 L 586.722656 390.539062 L 607.769531 399.988281 L 646.136719 417.480469 L 704.832031 418.742188 L 738.476562 418.542969 L 792.164062 417.511719 L 816.5 405.828125 L 829.382812 400.101562 L 896.671875 370.007812 L 937.617188 351.539062 L 945.230469 348.992188 L 946.433594 350.222656 L 962.898438 416.792969 L 968.308594 438.871094 L 973.75 460.945312 L 973.75 467.875 Z M 975.554688 463.726562 L 975.152344 459.027344 L 963.699219 413.214844 L 947.578125 347.730469 L 945.71875 347.015625 L 936.757812 349.878906 L 903.257812 365.054688 L 897.53125 367.628906 L 840.835938 392.941406 L 820.222656 402.335938 L 815.210938 404.394531 L 790.875 416.078125 L 765.105469 416.277344 L 717.859375 417.222656 L 647.625 415.847656 L 608.914062 398.441406 L 596.890625 392.941406 L 567.398438 379.769531 L 540.195312 367.773438 L 533.753906 364.910156 L 499.910156 349.277344 L 492.324219 347.015625 L 490.546875 347.015625 L 488.371094 354.515625 L 481.15625 383.148438 L 462.316406 459.027344 L 462.144531 469.050781 L 464.292969 472.085938 L 478.609375 485.398438 L 485.765625 491.898438 L 495.070312 500.488281 L 518.664062 521.964844 L 530.117188 532.703125 L 545.636719 547.019531 L 548.242188 548.679688 L 550.875 550.3125 L 555.800781 549.597656 L 567.253906 544.042969 L 600.898438 525.429688 L 638.835938 504.957031 L 665.320312 489.78125 L 772.121094 489.78125 L 787.152344 498.515625 L 823.65625 518.558594 L 832.964844 523.597656 L 874.480469 546.21875 L 881.640625 549.480469 L 886.648438 550.371094 L 893.808594 545.617188 L 907.40625 532.617188 L 926.734375 515.007812 L 944.628906 498.3125 L 953.964844 489.722656 L 967.851562 477.667969 L 975.925781 468.304688 Z M 966.964844 475.695312 L 951.042969 489.808594 L 943.140625 496.96875 L 930.257812 509.167969 L 908.984375 528.40625 L 893.949219 542.980469 L 886.878906 548.164062 L 883.214844 548.164062 L 874.625 544.097656 L 788.726562 497.167969 L 772.691406 488.0625 L 666.265625 488.0625 L 662.65625 489.4375 L 644.132812 500.089844 L 610.347656 518.269531 L 564.820312 543.269531 L 559.523438 545.703125 L 554.226562 548.164062 L 550.789062 548.164062 L 545.0625 543.984375 L 528.828125 528.578125 L 489.402344 492.671875 L 468.042969 472.832031 L 464.089844 468.679688 L 464.089844 461.003906 L 477.03125 408.203125 L 491.347656 350.222656 L 492.523438 348.992188 L 500.167969 351.511719 L 540.914062 370.066406 L 586.722656 390.539062 L 607.769531 399.988281 L 646.136719 417.480469 L 704.832031 418.742188 L 738.476562 418.542969 L 792.164062 417.511719 L 816.5 405.828125 L 829.382812 400.101562 L 896.671875 370.007812 L 937.617188 351.539062 L 945.230469 348.992188 L 946.433594 350.222656 L 962.898438 416.792969 L 968.308594 438.871094 L 973.75 460.945312 L 973.75 467.875 Z M 1052.144531 467.992188 L 1051.714844 451.8125 L 1050.226562 435.347656 L 1048.851562 406.714844 L 1047.390625 383.808594 L 1046.648438 368.632812 L 1045.875 353.457031 L 1045.1875 347.902344 L 1044.5 342.320312 L 1043.039062 315.117188 L 1041.550781 287.914062 L 1037.65625 224.921875 L 1033.761719 161.925781 L 1033.332031 157.949219 L 1032.902344 153.9375 L 1023.511719 146.351562 L 1013.117188 141.570312 L 1004.386719 140.253906 L 995.796875 141.453125 L 988.035156 145.003906 L 979.703125 150.730469 L 975.582031 154.167969 L 955.539062 226.984375 L 940.535156 282.816406 L 940.164062 284.019531 L 927.566406 272.222656 L 898.675781 240.699219 L 886.878906 229.617188 L 877.488281 224.378906 L 838.660156 207.597656 L 804.816406 192.765625 L 780.679688 182.199219 L 768.683594 176.988281 L 669.757812 176.988281 L 664.03125 178.992188 L 635.859375 191.648438 L 633.253906 192.765625 L 578.851562 216.160156 L 555.226562 226.984375 L 547.382812 232.710938 L 535.929688 243.503906 L 512.679688 269.273438 L 497.246094 284.277344 L 494.785156 275 L 462.316406 154.796875 L 455.902344 147.925781 L 445.28125 140.882812 L 437.921875 138.707031 L 427.414062 138.707031 L 419.511719 141.570312 L 410.777344 147.867188 L 404.535156 154.140625 L 402.730469 182.402344 L 400.929688 210.632812 L 399.523438 229.960938 L 398.121094 249.289062 L 397.035156 271.480469 L 395.917969 293.671875 L 392.367188 349.503906 L 390.992188 370.980469 L 389.589844 392.457031 L 388.472656 413.585938 L 387.386719 434.691406 L 386.183594 450.8125 L 385.007812 466.675781 L 385.722656 487.117188 L 390.964844 495.019531 L 402.933594 509.335938 L 429.132812 542.867188 L 458.707031 580.089844 L 482.359375 609.554688 L 500.96875 633.691406 L 505.78125 638.417969 L 510.992188 641.023438 L 530.316406 647.582031 L 565.394531 658.289062 L 586.523438 664.015625 L 608.339844 669.226562 L 626.953125 672.378906 L 813.0625 672.175781 L 830.960938 669.085938 L 851.003906 664.246094 L 896.183594 651.246094 L 926.992188 640.996094 L 934.035156 636.957031 L 958.917969 605.003906 L 1009.625 541.351562 L 1033.675781 510.511719 L 1048.996094 491.898438 L 1052.574219 484.167969 Z M 1049.28125 487.546875 L 1047.90625 490.410156 L 1041.921875 497.65625 L 1035.96875 504.871094 L 1011.714844 535.652344 L 996.285156 555.207031 L 975.984375 580.75 L 947.578125 616.542969 L 933.664062 634.695312 L 929.511719 637.558594 L 922.925781 640.421875 L 896.785156 649.15625 L 852.003906 661.984375 L 835.226562 666.191406 L 815.898438 669.742188 L 811.605469 670.199219 L 807.308594 670.6875 L 631.933594 670.886719 L 621.914062 669.886719 L 599.753906 665.5625 L 575.414062 659.292969 L 543.917969 649.984375 L 510.992188 639.078125 L 504.464844 634.953125 L 490.949219 617.371094 L 480.125 603.628906 L 452.292969 568.550781 L 432.253906 543.410156 L 412.667969 518.441406 L 402.503906 505.558594 L 389.789062 490.125 L 387.414062 485.457031 L 386.957031 477.957031 L 386.46875 470.480469 L 388.789062 440.417969 L 389.875 419.3125 L 390.964844 398.183594 L 392.738281 370.980469 L 394.515625 343.777344 L 397.378906 299.398438 L 400.242188 242.128906 L 400.984375 236.402344 L 405.195312 171.976562 L 406.167969 155.113281 L 416.503906 145.464844 L 426.382812 140.539062 L 439.410156 140.539062 L 450.347656 145.980469 L 460.65625 155.542969 L 489.515625 262.171875 L 495.5 284.738281 L 495.816406 285.910156 L 496.933594 286.109375 L 498.050781 286.339844 L 510.5625 274.628906 L 537.5625 245.109375 L 547.355469 235.628906 L 555.65625 228.988281 L 565.394531 224.605469 L 591.164062 213.152344 L 631.734375 195.714844 L 641.984375 191.304688 L 662.742188 181.65625 L 671.332031 178.792969 L 769.515625 179.164062 L 780.96875 184.375 L 806.734375 195.628906 L 821.050781 201.84375 L 865.433594 221.140625 L 880.351562 227.8125 L 887.765625 232.824219 L 897.53125 242.332031 L 906.121094 251.464844 L 920.4375 267.183594 L 930.027344 276.71875 L 939.621094 286.253906 L 942.023438 285.796875 L 942.367188 284.480469 L 947.234375 266.46875 L 960.378906 217.792969 L 971.144531 178.421875 L 976.871094 157.660156 L 977.613281 155.285156 L 987.121094 147.984375 L 997.886719 142.628906 L 1011.660156 142.628906 L 1023.511719 148.671875 L 1031.730469 155.285156 L 1031.730469 158.378906 L 1032.761719 174.125 L 1033.820312 189.875 L 1038.117188 258.59375 L 1039.917969 289.375 L 1040.492188 299.28125 L 1041.695312 320.15625 L 1042.554688 337.335938 L 1043.554688 348.101562 L 1044.585938 358.839844 L 1045.644531 380.660156 L 1046.703125 402.476562 L 1048.136719 423.238281 L 1049.367188 442.566406 L 1050.570312 461.890625 L 1050.570312 484.800781 Z M 975.265625 458.914062 L 963.8125 413.101562 L 947.578125 347.730469 L 945.71875 347.015625 L 936.757812 349.878906 L 903.257812 365.054688 L 897.53125 367.628906 L 840.835938 392.941406 L 820.222656 402.335938 L 815.210938 404.394531 L 790.875 416.078125 L 765.105469 416.277344 L 717.859375 417.222656 L 647.625 415.847656 L 608.914062 398.441406 L 596.890625 392.941406 L 567.398438 379.769531 L 540.195312 367.773438 L 533.753906 364.910156 L 499.910156 349.277344 L 492.324219 347.015625 L 490.546875 347.015625 L 488.371094 354.515625 L 481.15625 383.148438 L 462.316406 459.027344 L 462.144531 469.050781 L 464.292969 472.085938 L 478.609375 485.398438 L 485.765625 491.898438 L 495.070312 500.488281 L 518.664062 521.964844 L 530.117188 532.703125 L 545.636719 547.019531 L 548.242188 548.679688 L 550.875 550.3125 L 555.800781 549.597656 L 567.253906 544.042969 L 600.898438 525.429688 L 638.835938 504.957031 L 665.320312 489.78125 L 772.121094 489.78125 L 787.152344 498.515625 L 823.65625 518.558594 L 832.964844 523.597656 L 874.480469 546.21875 L 881.640625 549.480469 L 886.648438 550.371094 L 893.808594 545.617188 L 907.40625 532.617188 L 926.734375 515.007812 L 944.628906 498.3125 L 953.964844 489.722656 L 967.851562 477.667969 L 975.925781 468.304688 L 975.554688 463.640625 Z M 967.136719 475.578125 L 951.214844 489.695312 L 943.3125 496.855469 L 930.429688 509.050781 L 908.984375 528.40625 L 893.949219 542.980469 L 886.878906 548.164062 L 883.214844 548.164062 L 874.625 544.097656 L 788.726562 497.167969 L 772.691406 488.0625 L 666.265625 488.0625 L 662.65625 489.4375 L 644.132812 500.089844 L 610.347656 518.269531 L 564.820312 543.269531 L 559.523438 545.703125 L 554.226562 548.164062 L 550.789062 548.164062 L 545.0625 543.984375 L 528.828125 528.578125 L 489.402344 492.671875 L 468.042969 472.832031 L 464.089844 468.679688 L 464.089844 461.003906 L 477.03125 408.203125 L 491.347656 350.222656 L 492.523438 348.992188 L 500.167969 351.511719 L 540.914062 370.066406 L 586.722656 390.539062 L 607.769531 399.988281 L 646.136719 417.480469 L 704.832031 418.742188 L 738.476562 418.542969 L 792.164062 417.511719 L 816.5 405.828125 L 829.382812 400.101562 L 896.671875 370.007812 L 937.617188 351.539062 L 945.230469 348.992188 L 946.433594 350.222656 L 962.898438 416.792969 L 968.308594 438.871094 L 973.75 460.945312 L 973.75 467.875 Z M 975.726562 463.609375 L 975.324219 458.914062 L 963.871094 413.101562 L 947.578125 347.730469 L 945.71875 347.015625 L 936.757812 349.878906 L 903.257812 365.054688 L 897.53125 367.628906 L 840.835938 392.941406 L 820.222656 402.335938 L 815.210938 404.394531 L 790.875 416.078125 L 765.105469 416.277344 L 717.859375 417.222656 L 647.625 415.847656 L 608.914062 398.441406 L 596.890625 392.941406 L 567.398438 379.769531 L 540.195312 367.773438 L 533.753906 364.910156 L 499.910156 349.277344 L 492.324219 347.015625 L 490.546875 347.015625 L 488.371094 354.515625 L 481.15625 383.148438 L 462.316406 459.027344 L 462.144531 469.050781 L 464.292969 472.085938 L 478.609375 485.398438 L 485.765625 491.898438 L 495.070312 500.488281 L 518.664062 521.964844 L 530.117188 532.703125 L 545.636719 547.019531 L 548.242188 548.679688 L 550.875 550.3125 L 555.800781 549.597656 L 567.253906 544.042969 L 600.898438 525.429688 L 638.835938 504.957031 L 665.320312 489.78125 L 772.121094 489.78125 L 787.152344 498.515625 L 823.65625 518.558594 L 832.964844 523.597656 L 874.480469 546.21875 L 881.640625 549.480469 L 886.648438 550.371094 L 893.808594 545.617188 L 907.40625 532.617188 L 926.734375 515.007812 L 944.628906 498.3125 L 953.964844 489.722656 L 967.851562 477.667969 L 975.925781 468.304688 Z M 967.136719 475.578125 L 951.214844 489.695312 L 943.3125 496.855469 L 930.429688 509.050781 L 908.984375 528.40625 L 893.949219 542.980469 L 886.878906 548.164062 L 883.214844 548.164062 L 874.625 544.097656 L 788.726562 497.167969 L 772.691406 488.0625 L 666.265625 488.0625 L 662.65625 489.4375 L 644.132812 500.089844 L 610.347656 518.269531 L 564.820312 543.269531 L 559.523438 545.703125 L 554.226562 548.164062 L 550.789062 548.164062 L 545.0625 543.984375 L 528.828125 528.578125 L 489.402344 492.671875 L 468.042969 472.832031 L 464.089844 468.679688 L 464.089844 461.003906 L 477.03125 408.203125 L 491.347656 350.222656 L 492.523438 348.992188 L 500.167969 351.511719 L 540.914062 370.066406 L 586.722656 390.539062 L 607.769531 399.988281 L 646.136719 417.480469 L 704.832031 418.742188 L 738.476562 418.542969 L 792.164062 417.511719 L 816.5 405.828125 L 829.382812 400.101562 L 896.671875 370.007812 L 937.617188 351.539062 L 945.230469 348.992188 L 946.433594 350.222656 L 962.898438 416.792969 L 968.308594 438.871094 L 973.75 460.945312 L 973.75 467.875 Z M 975.726562 463.609375 L 975.324219 458.914062 L 963.871094 413.101562 L 947.578125 347.730469 L 945.71875 347.015625 L 936.757812 349.878906 L 903.257812 365.054688 L 897.53125 367.628906 L 840.835938 392.941406 L 820.222656 402.335938 L 815.210938 404.394531 L 790.875 416.078125 L 765.105469 416.277344 L 717.859375 417.222656 L 647.625 415.847656 L 608.914062 398.441406 L 596.890625 392.941406 L 567.398438 379.769531 L 540.195312 367.773438 L 533.753906 364.910156 L 499.910156 349.277344 L 492.324219 347.015625 L 490.546875 347.015625 L 488.371094 354.515625 L 481.15625 383.148438 L 462.316406 459.027344 L 462.144531 469.050781 L 464.292969 472.085938 L 478.609375 485.398438 L 485.765625 491.898438 L 495.070312 500.488281 L 518.664062 521.964844 L 530.117188 532.703125 L 545.636719 547.019531 L 548.242188 548.679688 L 550.875 550.3125 L 555.800781 549.597656 L 567.253906 544.042969 L 600.898438 525.429688 L 638.835938 504.957031 L 665.320312 489.78125 L 772.121094 489.78125 L 787.152344 498.515625 L 823.65625 518.558594 L 832.964844 523.597656 L 874.480469 546.21875 L 881.640625 549.480469 L 886.648438 550.371094 L 893.808594 545.617188 L 907.40625 532.617188 L 926.734375 515.007812 L 944.628906 498.3125 L 953.964844 489.722656 L 967.851562 477.667969 L 975.925781 468.304688 Z M 967.136719 475.578125 L 951.214844 489.695312 L 943.3125 496.855469 L 930.429688 509.050781 L 908.984375 528.40625 L 893.949219 542.980469 L 886.878906 548.164062 L 883.214844 548.164062 L 874.625 544.097656 L 788.726562 497.167969 L 772.691406 488.0625 L 666.265625 488.0625 L 662.65625 489.4375 L 644.132812 500.089844 L 610.347656 518.269531 L 564.820312 543.269531 L 559.523438 545.703125 L 554.226562 548.164062 L 550.789062 548.164062 L 545.0625 543.984375 L 528.828125 528.578125 L 489.402344 492.671875 L 468.042969 472.832031 L 464.089844 468.679688 L 464.089844 461.003906 L 477.03125 408.203125 L 491.347656 350.222656 L 492.523438 348.992188 L 500.167969 351.511719 L 540.914062 370.066406 L 586.722656 390.539062 L 607.769531 399.988281 L 646.136719 417.480469 L 704.832031 418.742188 L 738.476562 418.542969 L 792.164062 417.511719 L 816.5 405.828125 L 829.382812 400.101562 L 896.671875 370.007812 L 937.617188 351.539062 L 945.230469 348.992188 L 946.433594 350.222656 L 962.898438 416.792969 L 968.308594 438.871094 L 973.75 460.945312 L 973.75 467.875 Z M 975.726562 463.609375 L 975.324219 458.914062 L 963.871094 413.101562 L 947.578125 347.730469 L 945.71875 347.015625 L 936.757812 349.878906 L 903.257812 365.054688 L 897.53125 367.628906 L 840.835938 392.941406 L 820.222656 402.335938 L 815.210938 404.394531 L 790.875 416.078125 L 765.105469 416.277344 L 717.859375 417.222656 L 647.625 415.847656 L 608.914062 398.441406 L 596.890625 392.941406 L 567.398438 379.769531 L 540.195312 367.773438 L 533.753906 364.910156 L 499.910156 349.277344 L 492.324219 347.015625 L 490.546875 347.015625 L 488.371094 354.515625 L 481.15625 383.148438 L 462.316406 459.027344 L 462.144531 469.050781 L 464.292969 472.085938 L 478.609375 485.398438 L 485.765625 491.898438 L 495.070312 500.488281 L 518.664062 521.964844 L 530.117188 532.703125 L 545.636719 547.019531 L 548.242188 548.679688 L 550.875 550.3125 L 555.800781 549.597656 L 567.253906 544.042969 L 600.898438 525.429688 L 638.835938 504.957031 L 665.320312 489.78125 L 772.121094 489.78125 L 787.152344 498.515625 L 823.65625 518.558594 L 832.964844 523.597656 L 874.480469 546.21875 L 881.640625 549.480469 L 886.648438 550.371094 L 893.808594 545.617188 L 907.40625 532.617188 L 926.734375 515.007812 L 944.628906 498.3125 L 953.964844 489.722656 L 967.851562 477.667969 L 975.925781 468.304688 Z M 967.136719 475.578125 L 951.214844 489.695312 L 943.3125 496.855469 L 930.429688 509.050781 L 908.984375 528.40625 L 893.949219 542.980469 L 886.878906 548.164062 L 883.214844 548.164062 L 874.625 544.097656 L 788.726562 497.167969 L 772.691406 488.0625 L 666.265625 488.0625 L 662.65625 489.4375 L 644.132812 500.089844 L 610.347656 518.269531 L 564.820312 543.269531 L 559.523438 545.703125 L 554.226562 548.164062 L 550.789062 548.164062 L 545.0625 543.984375 L 528.828125 528.578125 L 489.402344 492.671875 L 468.042969 472.832031 L 464.089844 468.679688 L 464.089844 461.003906 L 477.03125 408.203125 L 491.347656 350.222656 L 492.523438 348.992188 L 500.167969 351.511719 L 540.914062 370.066406 L 586.722656 390.539062 L 607.769531 399.988281 L 646.136719 417.480469 L 704.832031 418.742188 L 738.476562 418.542969 L 792.164062 417.511719 L 816.5 405.828125 L 829.382812 400.101562 L 896.671875 370.007812 L 937.617188 351.539062 L 945.230469 348.992188 L 946.433594 350.222656 L 962.898438 416.792969 L 968.308594 438.871094 L 973.75 460.945312 L 973.75 467.875 Z M 975.726562 463.609375 L 975.324219 458.914062 L 963.871094 413.101562 L 947.578125 347.730469 L 945.71875 347.015625 L 936.757812 349.878906 L 903.257812 365.054688 L 897.53125 367.628906 L 840.835938 392.941406 L 820.222656 402.335938 L 815.210938 404.394531 L 790.875 416.078125 L 765.105469 416.277344 L 717.859375 417.222656 L 647.625 415.847656 L 608.914062 398.441406 L 596.890625 392.941406 L 567.398438 379.769531 L 540.195312 367.773438 L 533.753906 364.910156 L 499.910156 349.277344 L 492.324219 347.015625 L 490.546875 347.015625 L 488.371094 354.515625 L 481.15625 383.148438 L 462.316406 459.027344 L 462.144531 469.050781 L 464.292969 472.085938 L 478.609375 485.398438 L 485.765625 491.898438 L 495.070312 500.488281 L 518.664062 521.964844 L 530.117188 532.703125 L 545.636719 547.019531 L 548.242188 548.679688 L 550.875 550.3125 L 555.800781 549.597656 L 567.253906 544.042969 L 600.898438 525.429688 L 638.835938 504.957031 L 665.320312 489.78125 L 772.121094 489.78125 L 787.152344 498.515625 L 823.65625 518.558594 L 832.964844 523.597656 L 874.480469 546.21875 L 881.640625 549.480469 L 886.648438 550.371094 L 893.808594 545.617188 L 907.40625 532.617188 L 926.734375 515.007812 L 944.628906 498.3125 L 953.964844 489.722656 L 967.851562 477.667969 L 975.925781 468.304688 Z M 967.136719 475.578125 L 951.214844 489.695312 L 943.3125 496.855469 L 930.429688 509.050781 L 908.984375 528.40625 L 893.949219 542.980469 L 886.878906 548.164062 L 883.214844 548.164062 L 874.625 544.097656 L 788.726562 497.167969 L 772.691406 488.0625 L 666.265625 488.0625 L 662.65625 489.4375 L 644.132812 500.089844 L 610.347656 518.269531 L 564.820312 543.269531 L 559.523438 545.703125 L 554.226562 548.164062 L 550.789062 548.164062 L 545.0625 543.984375 L 528.828125 528.578125 L 489.402344 492.671875 L 468.042969 472.832031 L 464.089844 468.679688 L 464.089844 461.003906 L 477.03125 408.203125 L 491.347656 350.222656 L 492.523438 348.992188 L 500.167969 351.511719 L 540.914062 370.066406 L 586.722656 390.539062 L 607.769531 399.988281 L 646.136719 417.480469 L 704.832031 418.742188 L 738.476562 418.542969 L 792.164062 417.511719 L 816.5 405.828125 L 829.382812 400.101562 L 896.671875 370.007812 L 937.617188 351.539062 L 945.230469 348.992188 L 946.433594 350.222656 L 962.898438 416.792969 L 968.308594 438.871094 L 973.75 460.945312 L 973.75 467.875 Z M 967.136719 475.578125 " fill-opacity="1" fill-rule="nonzero"/></g><path fill="#c2000b" d="M 1050.457031 461.890625 L 1049.253906 442.566406 L 1048.023438 423.238281 L 1046.589844 402.476562 L 1045.53125 380.660156 L 1044.472656 358.839844 L 1043.554688 348.101562 L 1042.554688 337.335938 L 1041.695312 320.15625 L 1039.917969 289.375 L 1038.117188 258.59375 L 1033.820312 189.875 L 1032.761719 174.125 L 1031.730469 158.378906 L 1031.730469 155.285156 L 1023.511719 148.671875 L 1011.429688 142.628906 L 997.65625 142.628906 L 986.890625 147.984375 L 977.386719 155.285156 L 976.640625 157.660156 L 970.914062 178.421875 L 960.148438 217.792969 L 947.007812 266.46875 L 941.796875 285.796875 L 939.390625 286.253906 L 929.796875 276.71875 L 920.207031 267.183594 L 905.890625 251.464844 L 897.300781 242.332031 L 887.535156 232.824219 L 880.351562 227.8125 L 865.316406 221.113281 L 820.792969 201.699219 L 780.710938 184.234375 L 769.257812 179.023438 L 671.074219 178.792969 L 662.484375 181.65625 L 641.839844 191.132812 L 591.164062 212.980469 L 565.394531 224.433594 L 555.65625 228.871094 L 547.355469 235.515625 L 537.5625 244.992188 L 510.5625 274.515625 L 498.050781 286.226562 L 496.933594 285.996094 L 495.816406 285.796875 L 489.515625 262.171875 L 460.511719 155.515625 L 450.203125 145.949219 L 439.410156 140.507812 L 426.527344 140.507812 L 416.503906 145.464844 L 406.167969 155.113281 L 405.195312 171.976562 L 400.984375 236.402344 L 400.242188 242.128906 L 397.378906 299.398438 L 394.515625 343.777344 L 392.738281 370.980469 L 390.964844 398.183594 L 389.875 419.3125 L 388.789062 440.417969 L 386.46875 470.480469 L 386.957031 477.957031 L 387.414062 485.457031 L 389.648438 490.125 L 402.359375 505.558594 L 412.523438 518.441406 L 432.109375 543.410156 L 452.152344 568.550781 L 479.980469 603.628906 L 490.804688 617.371094 L 504.320312 634.953125 L 510.992188 639.078125 L 543.832031 649.871094 L 575.328125 659.175781 L 599.753906 665.5625 L 621.941406 670.027344 L 631.964844 671.03125 L 807.335938 670.832031 L 811.632812 670.34375 L 815.925781 669.886719 L 835.253906 666.335938 L 852.03125 662.125 L 896.8125 649.296875 L 922.957031 640.566406 L 929.539062 637.703125 L 933.691406 634.839844 L 947.609375 616.683594 L 976.011719 580.894531 L 996.3125 555.351562 L 1011.746094 535.796875 L 1035.996094 505.015625 L 1041.953125 497.796875 L 1047.9375 490.554688 L 1049.3125 487.691406 L 1050.714844 484.828125 Z M 967.851562 477.753906 L 953.964844 489.808594 L 944.628906 498.398438 L 926.734375 515.09375 L 907.40625 532.703125 L 893.808594 545.703125 L 886.648438 550.457031 L 881.640625 549.566406 L 874.480469 546.304688 L 832.964844 523.683594 L 823.65625 518.644531 L 787.152344 498.601562 L 772.121094 489.867188 L 665.605469 489.867188 L 639.121094 505.042969 L 601.183594 525.515625 L 567.539062 544.128906 L 556.085938 549.683594 L 551.164062 550.398438 L 548.214844 548.738281 L 545.609375 547.078125 L 530.089844 532.761719 L 518.636719 522.023438 L 495.042969 500.546875 L 485.738281 491.957031 L 478.578125 485.457031 L 464.261719 472.144531 L 462.316406 469.050781 L 462.488281 459.027344 L 481.300781 383.148438 L 488.515625 354.515625 L 490.691406 347.015625 L 492.464844 347.015625 L 500.054688 349.277344 L 533.898438 364.710938 L 540.339844 367.574219 L 567.539062 379.714844 L 596.890625 392.941406 L 609.058594 398.441406 L 647.625 415.847656 L 717.859375 417.222656 L 765.105469 416.277344 L 790.875 416.078125 L 815.210938 404.394531 L 820.222656 402.335938 L 840.980469 392.941406 L 897.53125 367.773438 L 903.257812 365.195312 L 936.757812 349.734375 L 945.71875 346.871094 L 947.578125 347.585938 L 963.785156 413.214844 L 975.238281 459.027344 L 975.640625 463.726562 L 976.011719 468.390625 Z M 967.851562 477.753906 " fill-opacity="1" fill-rule="nonzero"/><path fill="#ffffff" d="M 973.777344 467.875 L 967.019531 475.695312 L 951.101562 489.808594 L 943.199219 496.96875 L 930.3125 509.167969 L 908.839844 528.40625 L 893.808594 542.980469 L 886.878906 548.164062 L 883.070312 548.164062 L 874.480469 544.097656 L 788.582031 497.167969 L 772.550781 488.0625 L 666.121094 487.949219 L 662.515625 489.324219 L 643.988281 499.976562 L 610.347656 518.269531 L 564.820312 543.269531 L 559.523438 545.703125 L 554.226562 548.164062 L 550.789062 548.164062 L 544.976562 543.984375 L 528.742188 528.578125 L 489.402344 492.671875 L 467.898438 472.832031 L 463.949219 468.679688 L 463.949219 461.003906 L 476.890625 408.203125 L 491.292969 350.222656 L 492.464844 348.992188 L 500.109375 351.511719 L 540.914062 370.066406 L 586.722656 390.539062 L 607.769531 399.988281 L 646.136719 417.480469 L 704.832031 418.742188 L 738.476562 418.542969 L 792.164062 417.511719 L 816.5 405.828125 L 829.382812 400.1875 L 896.671875 370.09375 L 937.5 351.539062 L 945.117188 348.992188 L 946.320312 350.222656 L 962.78125 416.792969 L 968.195312 438.871094 L 973.636719 460.945312 L 973.722656 464.410156 Z M 973.777344 467.875 " fill-opacity="1" fill-rule="nonzero"/><path fill="#000000" d="M 604.695312 423.425781 C 605.726562 423.886719 606.730469 424.40625 607.703125 424.988281 C 608.679688 425.566406 609.617188 426.203125 610.523438 426.898438 C 611.425781 427.59375 612.292969 428.34375 613.121094 429.144531 C 613.949219 429.945312 614.734375 430.800781 615.476562 431.703125 C 616.214844 432.605469 616.914062 433.554688 617.5625 434.546875 C 618.210938 435.542969 618.808594 436.578125 619.359375 437.652344 C 619.910156 438.726562 620.410156 439.839844 620.855469 440.988281 C 621.300781 442.136719 621.691406 443.3125 622.03125 444.519531 C 622.367188 445.726562 622.648438 446.960938 622.875 448.21875 C 623.101562 449.472656 623.269531 450.75 623.382812 452.042969 C 623.496094 453.335938 623.550781 454.640625 623.546875 455.960938 C 623.542969 457.277344 623.480469 458.601562 623.363281 459.929688 C 623.246094 461.257812 623.070312 462.585938 622.839844 463.914062 C 622.605469 465.242188 622.320312 466.566406 621.976562 467.878906 C 621.632812 469.191406 621.234375 470.492188 620.785156 471.78125 C 620.332031 473.066406 619.828125 474.335938 619.273438 475.582031 C 618.714844 476.832031 618.109375 478.054688 617.457031 479.25 C 616.800781 480.449219 616.101562 481.613281 615.355469 482.75 C 614.609375 483.882812 613.820312 484.980469 612.988281 486.042969 C 612.15625 487.101562 611.285156 488.121094 610.378906 489.097656 C 609.46875 490.078125 608.527344 491.007812 607.546875 491.890625 C 606.570312 492.773438 605.566406 493.609375 604.527344 494.390625 C 603.492188 495.171875 602.433594 495.902344 601.347656 496.574219 C 600.261719 497.246094 599.15625 497.863281 598.035156 498.417969 C 596.910156 498.976562 595.773438 499.472656 594.621094 499.910156 C 593.472656 500.347656 592.3125 500.71875 591.144531 501.03125 C 589.976562 501.339844 588.804688 501.589844 587.632812 501.769531 C 586.460938 501.953125 585.289062 502.070312 584.121094 502.125 C 582.953125 502.175781 581.796875 502.164062 580.644531 502.085938 C 579.496094 502.007812 578.359375 501.867188 577.238281 501.660156 C 576.117188 501.449219 575.015625 501.179688 573.933594 500.84375 C 572.847656 500.507812 571.792969 500.109375 570.757812 499.652344 C 569.726562 499.191406 568.722656 498.671875 567.75 498.089844 C 566.773438 497.511719 565.835938 496.871094 564.929688 496.179688 C 564.027344 495.484375 563.160156 494.734375 562.332031 493.933594 C 561.503906 493.128906 560.71875 492.277344 559.976562 491.375 C 559.238281 490.472656 558.539062 489.523438 557.890625 488.53125 C 557.242188 487.535156 556.644531 486.5 556.09375 485.425781 C 555.542969 484.347656 555.042969 483.238281 554.597656 482.089844 C 554.152344 480.941406 553.761719 479.765625 553.421875 478.554688 C 553.085938 477.347656 552.804688 476.117188 552.578125 474.859375 C 552.351562 473.601562 552.183594 472.328125 552.070312 471.035156 C 551.957031 469.742188 551.902344 468.433594 551.90625 467.117188 C 551.910156 465.800781 551.972656 464.476562 552.089844 463.148438 C 552.207031 461.816406 552.382812 460.488281 552.613281 459.160156 C 552.847656 457.832031 553.132812 456.511719 553.476562 455.199219 C 553.820312 453.882812 554.21875 452.582031 554.667969 451.296875 C 555.121094 450.007812 555.625 448.742188 556.179688 447.492188 C 556.738281 446.246094 557.34375 445.023438 557.996094 443.824219 C 558.652344 442.628906 559.351562 441.460938 560.097656 440.328125 C 560.84375 439.191406 561.632812 438.09375 562.464844 437.035156 C 563.296875 435.972656 564.167969 434.953125 565.074219 433.976562 C 565.984375 433 566.925781 432.070312 567.90625 431.183594 C 568.882812 430.300781 569.886719 429.46875 570.925781 428.6875 C 571.960938 427.902344 573.019531 427.175781 574.105469 426.503906 C 575.191406 425.828125 576.296875 425.214844 577.417969 424.65625 C 578.542969 424.101562 579.679688 423.601562 580.832031 423.167969 C 581.980469 422.730469 583.140625 422.355469 584.308594 422.046875 C 585.476562 421.734375 586.648438 421.488281 587.820312 421.304688 C 588.992188 421.121094 590.164062 421.003906 591.332031 420.953125 C 592.5 420.898438 593.65625 420.914062 594.808594 420.988281 C 595.957031 421.066406 597.09375 421.210938 598.214844 421.417969 C 599.335938 421.625 600.4375 421.898438 601.519531 422.234375 C 602.605469 422.570312 603.660156 422.964844 604.695312 423.425781 Z M 604.695312 423.425781 " fill-opacity="1" fill-rule="nonzero"/><path fill="#000000" d="M 871.925781 445.039062 C 872.480469 446.285156 872.984375 447.554688 873.4375 448.839844 C 873.886719 450.128906 874.285156 451.429688 874.628906 452.742188 C 874.972656 454.058594 875.261719 455.378906 875.492188 456.707031 C 875.722656 458.035156 875.898438 459.363281 876.015625 460.691406 C 876.136719 462.023438 876.195312 463.34375 876.199219 464.664062 C 876.203125 465.980469 876.148438 467.285156 876.035156 468.578125 C 875.921875 469.871094 875.753906 471.148438 875.527344 472.40625 C 875.304688 473.660156 875.019531 474.894531 874.683594 476.101562 C 874.347656 477.308594 873.953125 478.488281 873.507812 479.632812 C 873.0625 480.78125 872.5625 481.894531 872.011719 482.96875 C 871.464844 484.046875 870.863281 485.082031 870.214844 486.074219 C 869.566406 487.070312 868.871094 488.015625 868.128906 488.917969 C 867.386719 489.824219 866.601562 490.675781 865.773438 491.476562 C 864.945312 492.28125 864.082031 493.027344 863.175781 493.722656 C 862.269531 494.417969 861.332031 495.054688 860.359375 495.636719 C 859.382812 496.214844 858.378906 496.734375 857.347656 497.195312 C 856.3125 497.65625 855.257812 498.054688 854.171875 498.390625 C 853.089844 498.722656 851.988281 498.996094 850.867188 499.203125 C 849.746094 499.410156 848.609375 499.554688 847.460938 499.632812 C 846.308594 499.710938 845.152344 499.722656 843.984375 499.667969 C 842.816406 499.617188 841.648438 499.5 840.472656 499.316406 C 839.300781 499.132812 838.128906 498.886719 836.960938 498.574219 C 835.792969 498.265625 834.636719 497.890625 833.484375 497.457031 C 832.332031 497.019531 831.195312 496.523438 830.070312 495.964844 C 828.949219 495.40625 827.84375 494.792969 826.757812 494.121094 C 825.675781 493.445312 824.613281 492.71875 823.578125 491.9375 C 822.542969 491.152344 821.535156 490.320312 820.558594 489.4375 C 819.582031 488.550781 818.636719 487.621094 817.730469 486.644531 C 816.820312 485.667969 815.949219 484.648438 815.117188 483.585938 C 814.285156 482.527344 813.496094 481.429688 812.75 480.292969 C 812.003906 479.160156 811.304688 477.996094 810.648438 476.796875 C 809.996094 475.601562 809.390625 474.378906 808.835938 473.128906 C 808.277344 471.882812 807.773438 470.613281 807.324219 469.324219 C 806.871094 468.039062 806.472656 466.738281 806.128906 465.425781 C 805.785156 464.109375 805.5 462.789062 805.265625 461.460938 C 805.035156 460.132812 804.859375 458.804688 804.742188 457.476562 C 804.625 456.144531 804.5625 454.824219 804.558594 453.503906 C 804.558594 452.1875 804.613281 450.882812 804.722656 449.589844 C 804.835938 448.292969 805.003906 447.019531 805.230469 445.761719 C 805.457031 444.507812 805.738281 443.273438 806.074219 442.066406 C 806.414062 440.859375 806.804688 439.679688 807.25 438.53125 C 807.695312 437.386719 808.195312 436.273438 808.746094 435.199219 C 809.296875 434.121094 809.894531 433.085938 810.542969 432.09375 C 811.195312 431.097656 811.890625 430.148438 812.632812 429.246094 C 813.371094 428.34375 814.15625 427.492188 814.984375 426.691406 C 815.8125 425.886719 816.679688 425.140625 817.582031 424.445312 C 818.488281 423.75 819.425781 423.113281 820.402344 422.53125 C 821.375 421.953125 822.378906 421.429688 823.410156 420.972656 C 824.445312 420.511719 825.503906 420.113281 826.585938 419.777344 C 827.667969 419.441406 828.769531 419.171875 829.890625 418.964844 C 831.011719 418.757812 832.148438 418.613281 833.300781 418.535156 C 834.449219 418.457031 835.609375 418.445312 836.773438 418.496094 C 837.941406 418.550781 839.113281 418.667969 840.285156 418.851562 C 841.457031 419.035156 842.628906 419.28125 843.796875 419.589844 C 844.964844 419.902344 846.125 420.277344 847.273438 420.710938 C 848.425781 421.148438 849.5625 421.644531 850.6875 422.203125 C 851.8125 422.761719 852.914062 423.375 854 424.046875 C 855.085938 424.722656 856.144531 425.449219 857.179688 426.230469 C 858.21875 427.015625 859.222656 427.847656 860.203125 428.730469 C 861.179688 429.613281 862.121094 430.546875 863.03125 431.523438 C 863.9375 432.5 864.808594 433.519531 865.640625 434.578125 C 866.472656 435.640625 867.261719 436.738281 868.007812 437.871094 C 868.753906 439.007812 869.457031 440.171875 870.109375 441.371094 C 870.765625 442.566406 871.371094 443.789062 871.925781 445.039062 Z M 871.925781 445.039062 " fill-opacity="1" fill-rule="nonzero"/><path stroke-linecap="butt" transform="matrix(2.863248, 0, 0, 2.86335, 385.008361, 138.705835)" fill="none" stroke-linejoin="miter" d="M 78.449554 111.889964 L 146.649523 111.889964 " stroke="#000000" stroke-width="2" stroke-opacity="1" stroke-miterlimit="10"/><g clip-path="url(#ad2d3bac6e)"><path stroke-linecap="butt" transform="matrix(2.863248, 0, 0, 2.86335, 385.008361, 138.705835)" fill="none" stroke-linejoin="miter" d="M 4.309545 56.120494 L 39.240371 50.860047 " stroke="#ffffff" stroke-width="1.5" stroke-opacity="1" stroke-miterlimit="10"/></g><g clip-path="url(#2dff6b4e32)"><path stroke-linecap="butt" transform="matrix(2.863248, 0, 0, 2.86335, 385.008361, 138.705835)" fill="none" stroke-linejoin="miter" d="M 229.170257 56.120494 L 194.239431 50.860047 " stroke="#ffffff" stroke-width="1.5" stroke-opacity="1" stroke-miterlimit="10"/></g><path fill="#13017c" d="M 815.785156 669.769531 L 773.75 524.171875 L 663.574219 524.171875 L 621.800781 669.914062 " fill-opacity="1" fill-rule="nonzero"/><g clip-path="url(#030807c961)"><path stroke-linecap="butt" transform="matrix(2.863248, 0, 0, 2.86335, 385.008361, 138.705835)" fill="none" stroke-linejoin="miter" d="M 150.450385 185.469377 L 135.769452 134.620662 L 97.290154 134.620662 L 82.700626 185.519853 " stroke="#ffffff" stroke-width="1.5" stroke-opacity="1" stroke-miterlimit="10"/></g><path fill="#13017c" d="M 825.804688 227.726562 L 772.433594 316.75 L 665.664062 316.75 L 612.292969 227.726562 L 631.589844 195.542969 L 633.253906 192.765625 L 635.859375 191.648438 L 664.03125 178.992188 L 669.757812 176.988281 L 768.539062 176.988281 L 780.710938 182.199219 L 804.847656 192.765625 L 806.535156 195.601562 Z M 825.804688 227.726562 " fill-opacity="1" fill-rule="nonzero"/><g clip-path="url(#3ba8ecc294)"><path stroke-linecap="butt" transform="matrix(2.863248, 0, 0, 2.86335, 385.008361, 138.705835)" fill="none" stroke-linejoin="miter" d="M 153.949743 31.089715 L 135.309692 62.180376 L 98.020039 62.180376 L 79.379988 31.089715 L 86.119493 19.849874 L 86.700673 18.879911 L 87.610642 18.489743 L 97.449773 14.069658 L 99.449797 13.369811 L 133.949513 13.369811 L 138.200585 15.189686 L 146.630423 18.879911 L 147.219788 19.870338 Z M 153.949743 31.089715 " stroke="#ffffff" stroke-width="1.5" stroke-opacity="1" stroke-miterlimit="10"/></g><path fill="#a1d0da" d="M 596.214844 442.46875 C 596.734375 442.699219 597.234375 442.960938 597.722656 443.25 C 598.207031 443.539062 598.679688 443.859375 599.128906 444.207031 C 599.582031 444.554688 600.015625 444.925781 600.429688 445.328125 C 600.84375 445.730469 601.234375 446.15625 601.605469 446.609375 C 601.976562 447.058594 602.324219 447.535156 602.648438 448.03125 C 602.972656 448.527344 603.273438 449.046875 603.546875 449.585938 C 603.824219 450.121094 604.074219 450.679688 604.296875 451.253906 C 604.519531 451.828125 604.714844 452.417969 604.882812 453.019531 C 605.050781 453.625 605.191406 454.242188 605.304688 454.871094 C 605.417969 455.5 605.5 456.136719 605.558594 456.785156 C 605.613281 457.429688 605.640625 458.082031 605.640625 458.742188 C 605.636719 459.402344 605.605469 460.0625 605.546875 460.730469 C 605.488281 461.394531 605.402344 462.058594 605.285156 462.722656 C 605.167969 463.386719 605.023438 464.046875 604.851562 464.707031 C 604.679688 465.363281 604.480469 466.015625 604.253906 466.65625 C 604.03125 467.300781 603.777344 467.9375 603.5 468.5625 C 603.222656 469.1875 602.917969 469.796875 602.589844 470.394531 C 602.265625 470.996094 601.914062 471.578125 601.539062 472.144531 C 601.167969 472.714844 600.773438 473.261719 600.355469 473.792969 C 599.941406 474.324219 599.503906 474.835938 599.050781 475.324219 C 598.59375 475.8125 598.125 476.277344 597.632812 476.722656 C 597.144531 477.164062 596.640625 477.582031 596.125 477.972656 C 595.605469 478.363281 595.074219 478.726562 594.53125 479.0625 C 593.992188 479.402344 593.4375 479.710938 592.875 479.988281 C 592.3125 480.265625 591.746094 480.515625 591.167969 480.734375 C 590.59375 480.953125 590.015625 481.140625 589.429688 481.296875 C 588.847656 481.453125 588.261719 481.574219 587.675781 481.667969 C 587.085938 481.757812 586.503906 481.816406 585.917969 481.84375 C 585.335938 481.871094 584.757812 481.863281 584.179688 481.824219 C 583.605469 481.785156 583.039062 481.714844 582.476562 481.609375 C 581.914062 481.507812 581.363281 481.371094 580.824219 481.203125 C 580.28125 481.035156 579.753906 480.835938 579.238281 480.609375 C 578.71875 480.378906 578.21875 480.117188 577.730469 479.828125 C 577.246094 479.539062 576.773438 479.21875 576.324219 478.871094 C 575.871094 478.523438 575.4375 478.148438 575.023438 477.746094 C 574.609375 477.347656 574.21875 476.921875 573.847656 476.46875 C 573.476562 476.015625 573.128906 475.542969 572.804688 475.046875 C 572.480469 474.546875 572.179688 474.03125 571.90625 473.492188 C 571.628906 472.953125 571.378906 472.398438 571.15625 471.824219 C 570.933594 471.25 570.738281 470.660156 570.570312 470.054688 C 570.402344 469.453125 570.261719 468.835938 570.148438 468.207031 C 570.035156 467.578125 569.949219 466.941406 569.894531 466.292969 C 569.839844 465.644531 569.8125 464.992188 569.8125 464.335938 C 569.816406 463.675781 569.847656 463.011719 569.90625 462.347656 C 569.964844 461.683594 570.050781 461.019531 570.167969 460.355469 C 570.285156 459.6875 570.429688 459.027344 570.601562 458.371094 C 570.773438 457.714844 570.972656 457.0625 571.199219 456.417969 C 571.421875 455.773438 571.675781 455.140625 571.953125 454.515625 C 572.230469 453.890625 572.535156 453.28125 572.863281 452.679688 C 573.1875 452.082031 573.539062 451.5 573.914062 450.929688 C 574.285156 450.363281 574.679688 449.8125 575.097656 449.28125 C 575.511719 448.75 575.949219 448.242188 576.402344 447.753906 C 576.859375 447.265625 577.328125 446.796875 577.816406 446.355469 C 578.308594 445.914062 578.808594 445.496094 579.328125 445.105469 C 579.847656 444.714844 580.378906 444.347656 580.921875 444.011719 C 581.460938 443.675781 582.015625 443.367188 582.578125 443.089844 C 583.136719 442.808594 583.707031 442.5625 584.28125 442.34375 C 584.859375 442.125 585.4375 441.9375 586.023438 441.78125 C 586.605469 441.625 587.191406 441.5 587.777344 441.410156 C 588.367188 441.320312 588.949219 441.261719 589.535156 441.234375 C 590.117188 441.207031 590.695312 441.214844 591.273438 441.25 C 591.847656 441.289062 592.414062 441.363281 592.976562 441.464844 C 593.535156 441.570312 594.089844 441.703125 594.628906 441.871094 C 595.171875 442.039062 595.699219 442.238281 596.214844 442.46875 Z M 596.214844 442.46875 " fill-opacity="1" fill-rule="nonzero"/><path fill="#a1d0da" d="M 856.152344 452.0625 C 856.429688 452.6875 856.683594 453.320312 856.910156 453.964844 C 857.132812 454.609375 857.332031 455.257812 857.503906 455.917969 C 857.675781 456.574219 857.820312 457.234375 857.9375 457.898438 C 858.054688 458.5625 858.140625 459.226562 858.199219 459.894531 C 858.257812 460.558594 858.289062 461.21875 858.292969 461.878906 C 858.292969 462.539062 858.265625 463.191406 858.210938 463.839844 C 858.15625 464.484375 858.070312 465.125 857.957031 465.753906 C 857.84375 466.382812 857.703125 466.996094 857.535156 467.601562 C 857.367188 468.207031 857.171875 468.796875 856.949219 469.371094 C 856.726562 469.941406 856.476562 470.5 856.203125 471.039062 C 855.925781 471.574219 855.625 472.09375 855.300781 472.589844 C 854.976562 473.089844 854.628906 473.5625 854.257812 474.015625 C 853.886719 474.464844 853.496094 474.890625 853.082031 475.292969 C 852.667969 475.695312 852.234375 476.070312 851.78125 476.417969 C 851.332031 476.765625 850.859375 477.082031 850.375 477.371094 C 849.886719 477.664062 849.386719 477.921875 848.871094 478.152344 C 848.351562 478.382812 847.824219 478.582031 847.28125 478.75 C 846.742188 478.917969 846.191406 479.054688 845.628906 479.15625 C 845.066406 479.261719 844.5 479.332031 843.925781 479.371094 C 843.351562 479.410156 842.769531 479.414062 842.1875 479.390625 C 841.601562 479.363281 841.019531 479.304688 840.429688 479.210938 C 839.84375 479.121094 839.257812 478.996094 838.675781 478.839844 C 838.089844 478.683594 837.511719 478.496094 836.9375 478.28125 C 836.359375 478.0625 835.792969 477.8125 835.230469 477.535156 C 834.667969 477.253906 834.117188 476.945312 833.574219 476.609375 C 833.03125 476.273438 832.5 475.910156 831.980469 475.515625 C 831.464844 475.125 830.960938 474.707031 830.472656 474.265625 C 829.984375 473.824219 829.511719 473.359375 829.054688 472.871094 C 828.601562 472.378906 828.167969 471.871094 827.75 471.339844 C 827.335938 470.808594 826.941406 470.257812 826.566406 469.691406 C 826.191406 469.125 825.84375 468.539062 825.515625 467.941406 C 825.1875 467.34375 824.886719 466.730469 824.605469 466.105469 C 824.328125 465.480469 824.078125 464.847656 823.851562 464.203125 C 823.625 463.558594 823.425781 462.910156 823.253906 462.25 C 823.082031 461.59375 822.9375 460.933594 822.820312 460.269531 C 822.707031 459.605469 822.617188 458.9375 822.558594 458.273438 C 822.5 457.609375 822.46875 456.949219 822.46875 456.289062 C 822.464844 455.628906 822.492188 454.976562 822.546875 454.328125 C 822.605469 453.679688 822.6875 453.042969 822.800781 452.414062 C 822.914062 451.785156 823.054688 451.167969 823.222656 450.566406 C 823.390625 449.960938 823.585938 449.371094 823.808594 448.796875 C 824.035156 448.222656 824.28125 447.667969 824.558594 447.128906 C 824.832031 446.589844 825.132812 446.074219 825.457031 445.578125 C 825.78125 445.078125 826.128906 444.605469 826.5 444.152344 C 826.871094 443.703125 827.261719 443.277344 827.675781 442.875 C 828.089844 442.472656 828.523438 442.097656 828.976562 441.75 C 829.429688 441.402344 829.898438 441.085938 830.382812 440.792969 C 830.871094 440.503906 831.371094 440.246094 831.890625 440.015625 C 832.40625 439.785156 832.933594 439.585938 833.476562 439.417969 C 834.019531 439.25 834.570312 439.113281 835.128906 439.011719 C 835.691406 438.90625 836.257812 438.835938 836.832031 438.796875 C 837.410156 438.757812 837.988281 438.753906 838.570312 438.777344 C 839.15625 438.804688 839.742188 438.863281 840.328125 438.957031 C 840.914062 439.046875 841.5 439.171875 842.082031 439.328125 C 842.667969 439.484375 843.246094 439.667969 843.824219 439.886719 C 844.398438 440.105469 844.96875 440.355469 845.527344 440.632812 C 846.089844 440.914062 846.644531 441.222656 847.1875 441.558594 C 847.730469 441.894531 848.257812 442.257812 848.777344 442.648438 C 849.296875 443.042969 849.800781 443.457031 850.289062 443.902344 C 850.777344 444.34375 851.246094 444.808594 851.703125 445.296875 C 852.15625 445.789062 852.59375 446.296875 853.007812 446.828125 C 853.425781 447.359375 853.820312 447.90625 854.191406 448.476562 C 854.566406 449.042969 854.917969 449.625 855.242188 450.226562 C 855.570312 450.824219 855.875 451.4375 856.152344 452.0625 Z M 856.152344 452.0625 " fill-opacity="1" fill-rule="nonzero"/><g clip-path="url(#3fcb711412)"><path stroke-linecap="butt" transform="matrix(2.863248, 0, 0, 2.86335, 385.008361, 138.705835)" fill="none" stroke-linejoin="miter" d="M 0.410454 108.959611 L 12.729833 109.910475 L 21.7695 68.219795 L 3.829321 63.649645 " stroke="#ffffff" stroke-width="1.5" stroke-opacity="1" stroke-miterlimit="10"/></g><g clip-path="url(#81acb891c6)"><path stroke-linecap="butt" transform="matrix(2.863248, 0, 0, 2.86335, 385.008361, 138.705835)" fill="none" stroke-linejoin="miter" d="M 233.069347 107.790471 L 220.749969 108.739971 L 211.699387 67.050655 L 229.650481 62.480505 " stroke="#ffffff" stroke-width="1.5" stroke-opacity="1" stroke-miterlimit="10"/></g></svg>